<mxfile host="app.diagrams.net" modified="2022-04-25T07:38:15.186Z" agent="5.0 (Windows NT 10.0; Win64; x64) AppleWebKit/537.36 (KHTML, like Gecko) Chrome/100.0.4896.127 Safari/537.36" etag="XWzn1MfQbEr4maTkCYLR" version="17.4.5" type="github">
  <diagram id="C5RBs43oDa-KdzZeNtuy" name="Page-1">
    <mxGraphModel dx="1422" dy="798" grid="1" gridSize="10" guides="1" tooltips="1" connect="1" arrows="1" fold="1" page="1" pageScale="1" pageWidth="827" pageHeight="1169" math="0" shadow="0">
      <root>
        <mxCell id="WIyWlLk6GJQsqaUBKTNV-0" />
        <mxCell id="WIyWlLk6GJQsqaUBKTNV-1" parent="WIyWlLk6GJQsqaUBKTNV-0" />
        <mxCell id="yDkl6noKb5liu6R9dSFW-0" value="BMSAPI Gatway" style="sketch=0;outlineConnect=0;fontColor=#232F3E;gradientColor=none;strokeColor=#ffffff;fillColor=#232F3E;dashed=0;verticalLabelPosition=middle;verticalAlign=bottom;align=center;html=1;whiteSpace=wrap;fontSize=10;fontStyle=1;spacing=3;shape=mxgraph.aws4.productIcon;prIcon=mxgraph.aws4.api_gateway;" parent="WIyWlLk6GJQsqaUBKTNV-1" vertex="1">
          <mxGeometry x="19" y="261" width="80" height="110" as="geometry" />
        </mxCell>
        <mxCell id="yDkl6noKb5liu6R9dSFW-2" value="Radius API Gatway" style="sketch=0;points=[[0,0,0],[0.25,0,0],[0.5,0,0],[0.75,0,0],[1,0,0],[0,1,0],[0.25,1,0],[0.5,1,0],[0.75,1,0],[1,1,0],[0,0.25,0],[0,0.5,0],[0,0.75,0],[1,0.25,0],[1,0.5,0],[1,0.75,0]];outlineConnect=0;fontColor=#232F3E;gradientColor=#945DF2;gradientDirection=north;fillColor=#5A30B5;strokeColor=#ffffff;dashed=0;verticalLabelPosition=bottom;verticalAlign=top;align=center;html=1;fontSize=12;fontStyle=0;aspect=fixed;shape=mxgraph.aws4.resourceIcon;resIcon=mxgraph.aws4.api_gateway;" parent="WIyWlLk6GJQsqaUBKTNV-1" vertex="1">
          <mxGeometry x="250" y="261" width="78" height="78" as="geometry" />
        </mxCell>
        <mxCell id="yDkl6noKb5liu6R9dSFW-31" value="" style="edgeStyle=orthogonalEdgeStyle;rounded=0;orthogonalLoop=1;jettySize=auto;html=1;" parent="WIyWlLk6GJQsqaUBKTNV-1" source="yDkl6noKb5liu6R9dSFW-3" target="yDkl6noKb5liu6R9dSFW-8" edge="1">
          <mxGeometry relative="1" as="geometry" />
        </mxCell>
        <mxCell id="yDkl6noKb5liu6R9dSFW-3" value="" style="sketch=0;html=1;dashed=0;whitespace=wrap;fillColor=#2875E2;strokeColor=#ffffff;points=[[0.005,0.63,0],[0.1,0.2,0],[0.9,0.2,0],[0.5,0,0],[0.995,0.63,0],[0.72,0.99,0],[0.5,1,0],[0.28,0.99,0]];shape=mxgraph.kubernetes.icon;prIcon=api" parent="WIyWlLk6GJQsqaUBKTNV-1" vertex="1">
          <mxGeometry x="416" y="111" width="50" height="48" as="geometry" />
        </mxCell>
        <mxCell id="yDkl6noKb5liu6R9dSFW-4" value="" style="sketch=0;html=1;dashed=0;whitespace=wrap;fillColor=#2875E2;strokeColor=#ffffff;points=[[0.005,0.63,0],[0.1,0.2,0],[0.9,0.2,0],[0.5,0,0],[0.995,0.63,0],[0.72,0.99,0],[0.5,1,0],[0.28,0.99,0]];shape=mxgraph.kubernetes.icon;prIcon=api" parent="WIyWlLk6GJQsqaUBKTNV-1" vertex="1">
          <mxGeometry x="393" y="420" width="50" height="48" as="geometry" />
        </mxCell>
        <mxCell id="yDkl6noKb5liu6R9dSFW-6" value="NAS Service" style="text;html=1;align=center;verticalAlign=middle;resizable=0;points=[];autosize=1;strokeColor=none;fillColor=none;" parent="WIyWlLk6GJQsqaUBKTNV-1" vertex="1">
          <mxGeometry x="401" y="164" width="80" height="20" as="geometry" />
        </mxCell>
        <mxCell id="yDkl6noKb5liu6R9dSFW-7" value="Radius Service" style="text;html=1;align=center;verticalAlign=middle;resizable=0;points=[];autosize=1;strokeColor=none;fillColor=none;" parent="WIyWlLk6GJQsqaUBKTNV-1" vertex="1">
          <mxGeometry x="370" y="469" width="100" height="20" as="geometry" />
        </mxCell>
        <mxCell id="yDkl6noKb5liu6R9dSFW-8" value="" style="sketch=0;pointerEvents=1;shadow=0;dashed=0;html=1;strokeColor=none;fillColor=#005F4B;labelPosition=center;verticalLabelPosition=bottom;verticalAlign=top;align=center;outlineConnect=0;shape=mxgraph.veeam2.hardware_controller;" parent="WIyWlLk6GJQsqaUBKTNV-1" vertex="1">
          <mxGeometry x="590" y="286" width="38" height="28.000000000000004" as="geometry" />
        </mxCell>
        <mxCell id="yDkl6noKb5liu6R9dSFW-11" value="NAS" style="text;html=1;align=center;verticalAlign=middle;resizable=0;points=[];autosize=1;strokeColor=none;fillColor=none;" parent="WIyWlLk6GJQsqaUBKTNV-1" vertex="1">
          <mxGeometry x="590" y="330" width="40" height="20" as="geometry" />
        </mxCell>
        <mxCell id="yDkl6noKb5liu6R9dSFW-12" value="" style="fontColor=#0066CC;verticalAlign=top;verticalLabelPosition=bottom;labelPosition=center;align=center;html=1;outlineConnect=0;fillColor=#CCCCCC;strokeColor=#6881B3;gradientColor=none;gradientDirection=north;strokeWidth=2;shape=mxgraph.networks.pc;" parent="WIyWlLk6GJQsqaUBKTNV-1" vertex="1">
          <mxGeometry x="397" y="516" width="42" height="40" as="geometry" />
        </mxCell>
        <mxCell id="yDkl6noKb5liu6R9dSFW-13" value="Radius Server" style="text;html=1;align=center;verticalAlign=middle;resizable=0;points=[];autosize=1;strokeColor=none;fillColor=none;" parent="WIyWlLk6GJQsqaUBKTNV-1" vertex="1">
          <mxGeometry x="376" y="564" width="90" height="20" as="geometry" />
        </mxCell>
        <mxCell id="yDkl6noKb5liu6R9dSFW-18" value="" style="aspect=fixed;html=1;points=[];align=center;image;fontSize=12;image=img/lib/azure2/databases/Azure_Database_PostgreSQL_Server.svg;" parent="WIyWlLk6GJQsqaUBKTNV-1" vertex="1">
          <mxGeometry x="394" y="628" width="48" height="64" as="geometry" />
        </mxCell>
        <mxCell id="yDkl6noKb5liu6R9dSFW-21" value="Radius DB" style="text;html=1;align=center;verticalAlign=middle;resizable=0;points=[];autosize=1;strokeColor=none;fillColor=none;" parent="WIyWlLk6GJQsqaUBKTNV-1" vertex="1">
          <mxGeometry x="386" y="696" width="70" height="20" as="geometry" />
        </mxCell>
        <mxCell id="yDkl6noKb5liu6R9dSFW-22" value="" style="fontColor=#0066CC;verticalAlign=top;verticalLabelPosition=bottom;labelPosition=center;align=center;html=1;outlineConnect=0;fillColor=#CCCCCC;strokeColor=#6881B3;gradientColor=none;gradientDirection=north;strokeWidth=2;shape=mxgraph.networks.pc;" parent="WIyWlLk6GJQsqaUBKTNV-1" vertex="1">
          <mxGeometry x="705" y="200" width="42" height="40" as="geometry" />
        </mxCell>
        <mxCell id="yDkl6noKb5liu6R9dSFW-23" value="Log Server" style="text;html=1;align=center;verticalAlign=middle;resizable=0;points=[];autosize=1;strokeColor=none;fillColor=none;" parent="WIyWlLk6GJQsqaUBKTNV-1" vertex="1">
          <mxGeometry x="697" y="280" width="70" height="20" as="geometry" />
        </mxCell>
        <mxCell id="yDkl6noKb5liu6R9dSFW-26" value="" style="dashed=0;outlineConnect=0;html=1;align=center;labelPosition=center;verticalLabelPosition=bottom;verticalAlign=top;shape=mxgraph.weblogos.mongodb" parent="WIyWlLk6GJQsqaUBKTNV-1" vertex="1">
          <mxGeometry x="786" y="100" width="41.2" height="70" as="geometry" />
        </mxCell>
        <mxCell id="yDkl6noKb5liu6R9dSFW-27" value="Log DB" style="text;html=1;align=center;verticalAlign=middle;resizable=0;points=[];autosize=1;strokeColor=none;fillColor=none;" parent="WIyWlLk6GJQsqaUBKTNV-1" vertex="1">
          <mxGeometry x="767.2" y="184" width="60" height="20" as="geometry" />
        </mxCell>
        <mxCell id="yDkl6noKb5liu6R9dSFW-46" value="" style="endArrow=classic;startArrow=classic;html=1;rounded=0;exitX=0.5;exitY=0;exitDx=0;exitDy=0;exitPerimeter=0;" parent="WIyWlLk6GJQsqaUBKTNV-1" edge="1">
          <mxGeometry width="50" height="50" relative="1" as="geometry">
            <mxPoint x="429" y="419.9999999999998" as="sourcePoint" />
            <mxPoint x="331" y="320" as="targetPoint" />
          </mxGeometry>
        </mxCell>
        <mxCell id="yDkl6noKb5liu6R9dSFW-47" value="" style="endArrow=classic;startArrow=classic;html=1;rounded=0;" parent="WIyWlLk6GJQsqaUBKTNV-1" edge="1">
          <mxGeometry width="50" height="50" relative="1" as="geometry">
            <mxPoint x="330" y="260" as="sourcePoint" />
            <mxPoint x="434" y="181.99999999999977" as="targetPoint" />
          </mxGeometry>
        </mxCell>
        <mxCell id="yDkl6noKb5liu6R9dSFW-48" value="" style="endArrow=classic;startArrow=classic;html=1;rounded=0;entryX=0.278;entryY=1.315;entryDx=0;entryDy=0;entryPerimeter=0;" parent="WIyWlLk6GJQsqaUBKTNV-1" target="yDkl6noKb5liu6R9dSFW-11" edge="1">
          <mxGeometry width="50" height="50" relative="1" as="geometry">
            <mxPoint x="443" y="539" as="sourcePoint" />
            <mxPoint x="493" y="489" as="targetPoint" />
          </mxGeometry>
        </mxCell>
        <mxCell id="yDkl6noKb5liu6R9dSFW-49" value="Command Send Thorough&lt;br&gt;COA&amp;nbsp;" style="text;html=1;align=center;verticalAlign=middle;resizable=0;points=[];autosize=1;strokeColor=none;fillColor=none;" parent="WIyWlLk6GJQsqaUBKTNV-1" vertex="1">
          <mxGeometry x="506" y="465" width="160" height="30" as="geometry" />
        </mxCell>
        <mxCell id="yDkl6noKb5liu6R9dSFW-51" value="" style="endArrow=classic;html=1;rounded=0;" parent="WIyWlLk6GJQsqaUBKTNV-1" edge="1">
          <mxGeometry width="50" height="50" relative="1" as="geometry">
            <mxPoint x="740" y="200" as="sourcePoint" />
            <mxPoint x="790" y="150" as="targetPoint" />
          </mxGeometry>
        </mxCell>
        <mxCell id="yDkl6noKb5liu6R9dSFW-52" value="" style="endArrow=classic;html=1;rounded=0;" parent="WIyWlLk6GJQsqaUBKTNV-1" edge="1">
          <mxGeometry width="50" height="50" relative="1" as="geometry">
            <mxPoint x="638" y="288" as="sourcePoint" />
            <mxPoint x="688" y="238" as="targetPoint" />
          </mxGeometry>
        </mxCell>
        <mxCell id="yDkl6noKb5liu6R9dSFW-53" value="" style="endArrow=classic;startArrow=classic;html=1;rounded=0;" parent="WIyWlLk6GJQsqaUBKTNV-1" edge="1">
          <mxGeometry width="50" height="50" relative="1" as="geometry">
            <mxPoint x="421" y="517" as="sourcePoint" />
            <mxPoint x="421" y="484" as="targetPoint" />
          </mxGeometry>
        </mxCell>
        <mxCell id="yDkl6noKb5liu6R9dSFW-54" value="" style="endArrow=classic;startArrow=classic;html=1;rounded=0;" parent="WIyWlLk6GJQsqaUBKTNV-1" edge="1">
          <mxGeometry width="50" height="50" relative="1" as="geometry">
            <mxPoint x="415" y="616" as="sourcePoint" />
            <mxPoint x="415" y="583" as="targetPoint" />
          </mxGeometry>
        </mxCell>
        <mxCell id="yDkl6noKb5liu6R9dSFW-55" value="" style="sketch=0;points=[[0,0,0],[0.25,0,0],[0.5,0,0],[0.75,0,0],[1,0,0],[0,1,0],[0.25,1,0],[0.5,1,0],[0.75,1,0],[1,1,0],[0,0.25,0],[0,0.5,0],[0,0.75,0],[1,0.25,0],[1,0.5,0],[1,0.75,0]];outlineConnect=0;fontColor=#232F3E;gradientColor=#945DF2;gradientDirection=north;fillColor=#5A30B5;strokeColor=#ffffff;dashed=0;verticalLabelPosition=bottom;verticalAlign=top;align=center;html=1;fontSize=12;fontStyle=0;aspect=fixed;shape=mxgraph.aws4.resourceIcon;resIcon=mxgraph.aws4.managed_streaming_for_kafka;" parent="WIyWlLk6GJQsqaUBKTNV-1" vertex="1">
          <mxGeometry x="140" y="122" width="78" height="78" as="geometry" />
        </mxCell>
        <mxCell id="yDkl6noKb5liu6R9dSFW-56" value="" style="endArrow=classic;html=1;rounded=0;" parent="WIyWlLk6GJQsqaUBKTNV-1" edge="1">
          <mxGeometry width="50" height="50" relative="1" as="geometry">
            <mxPoint x="77" y="245" as="sourcePoint" />
            <mxPoint x="127" y="195" as="targetPoint" />
          </mxGeometry>
        </mxCell>
        <mxCell id="yDkl6noKb5liu6R9dSFW-57" value="" style="endArrow=classic;html=1;rounded=0;" parent="WIyWlLk6GJQsqaUBKTNV-1" edge="1">
          <mxGeometry width="50" height="50" relative="1" as="geometry">
            <mxPoint x="225" y="194" as="sourcePoint" />
            <mxPoint x="275" y="254" as="targetPoint" />
          </mxGeometry>
        </mxCell>
        <mxCell id="yDkl6noKb5liu6R9dSFW-59" value="Request (CUD)&lt;br&gt;Plan/User&lt;br&gt;/IpPool&lt;br&gt;&amp;nbsp;" style="text;html=1;align=center;verticalAlign=middle;resizable=0;points=[];autosize=1;strokeColor=none;fillColor=none;" parent="WIyWlLk6GJQsqaUBKTNV-1" vertex="1">
          <mxGeometry x="30" y="170" width="100" height="60" as="geometry" />
        </mxCell>
        <mxCell id="yDkl6noKb5liu6R9dSFW-60" value="GET Request&lt;br&gt;" style="text;html=1;align=center;verticalAlign=middle;resizable=0;points=[];autosize=1;strokeColor=none;fillColor=none;" parent="WIyWlLk6GJQsqaUBKTNV-1" vertex="1">
          <mxGeometry x="126" y="266" width="90" height="20" as="geometry" />
        </mxCell>
        <mxCell id="yDkl6noKb5liu6R9dSFW-63" value="" style="endArrow=classic;html=1;rounded=0;" parent="WIyWlLk6GJQsqaUBKTNV-1" edge="1">
          <mxGeometry width="50" height="50" relative="1" as="geometry">
            <mxPoint x="232" y="318" as="sourcePoint" />
            <mxPoint x="112" y="318" as="targetPoint" />
          </mxGeometry>
        </mxCell>
        <mxCell id="yDkl6noKb5liu6R9dSFW-64" value="" style="endArrow=classic;html=1;rounded=0;" parent="WIyWlLk6GJQsqaUBKTNV-1" edge="1">
          <mxGeometry width="50" height="50" relative="1" as="geometry">
            <mxPoint x="109" y="292" as="sourcePoint" />
            <mxPoint x="236" y="292" as="targetPoint" />
          </mxGeometry>
        </mxCell>
        <mxCell id="yDkl6noKb5liu6R9dSFW-65" value="CURD Request" style="text;html=1;align=center;verticalAlign=middle;resizable=0;points=[];autosize=1;strokeColor=none;fillColor=none;" parent="WIyWlLk6GJQsqaUBKTNV-1" vertex="1">
          <mxGeometry x="122" y="322" width="100" height="20" as="geometry" />
        </mxCell>
      </root>
    </mxGraphModel>
  </diagram>
</mxfile>
